HIERARCHY
ROOT Hips
{
	OFFSET 0.000000 0.000000 0.000000
	CHANNELS 6 Xposition Yposition Zposition Xrotation Yrotation Zrotation
	JOINT LeftUpLeg_virtual
	{
		OFFSET 0.000000 0.000000 0.000000
		CHANNELS 3 Xrotation Yrotation Zrotation
		JOINT LeftUpLeg
		{
			OFFSET 11.394100 -6.187798 -0.413800
			CHANNELS 3 Xrotation Yrotation Zrotation
			JOINT LeftLeg
			{
				OFFSET 0.430247 -32.302673 3.732800
				CHANNELS 3 Xrotation Yrotation Zrotation
				JOINT LeftFoot
				{
					OFFSET -0.430247 -48.264931 -6.423300
					CHANNELS 3 Xrotation Yrotation Zrotation
					JOINT LeftToeBase
					{
						OFFSET 4.230900 -16.068199 23.438400
						CHANNELS 3 Xrotation Yrotation Zrotation
						JOINT LeftToe_End
						{
							OFFSET 4.510700 0.695400 19.974600
							CHANNELS 3 Xrotation Yrotation Zrotation
							End Site
							{
								OFFSET 0 0 0
							}
						}
					}
				}
			}
		}
	}
	JOINT RightUpLeg_virtual
	{
		OFFSET 0.000000 0.000000 0.000000
		CHANNELS 3 Xrotation Yrotation Zrotation
		JOINT RightUpLeg
		{
			OFFSET -11.333700 -6.187798 -0.413800
			CHANNELS 3 Xrotation Yrotation Zrotation
			JOINT RightLeg
			{
				OFFSET -0.430392 -32.302628 3.733000
				CHANNELS 3 Xrotation Yrotation Zrotation
				JOINT RightFoot
				{
					OFFSET 0.430392 -48.264973 -6.423500
					CHANNELS 3 Xrotation Yrotation Zrotation
					JOINT RightToeBase
					{
						OFFSET -4.230900 -16.068199 23.438400
						CHANNELS 3 Xrotation Yrotation Zrotation
						JOINT RightToe_End
						{
							OFFSET -4.510700 0.695400 19.974600
							CHANNELS 3 Xrotation Yrotation Zrotation
							End Site
							{
								OFFSET 0 0 0
							}
						}
					}
				}
			}
		}
	}
	JOINT Spine_virtual
	{
		OFFSET 0.000000 0.000000 0.000000
		CHANNELS 3 Xrotation Yrotation Zrotation
		JOINT Spine
		{
			OFFSET -0.002400 12.777504 0.315300
			CHANNELS 3 Xrotation Yrotation Zrotation
			JOINT Spine1
			{
				OFFSET -0.002067 5.816869 0.032633
				CHANNELS 3 Xrotation Yrotation Zrotation
				JOINT Spine1_split
				{
					OFFSET -0.002067 5.816869 0.032633
					CHANNELS 3 Xrotation Yrotation Zrotation
					JOINT Spine2
					{
						OFFSET -0.002067 5.816869 0.032633
						CHANNELS 3 Xrotation Yrotation Zrotation
						JOINT Neck_virtual
						{
							OFFSET 0.000000 0.000000 0.000000
							CHANNELS 3 Xrotation Yrotation Zrotation
							JOINT Neck
							{
								OFFSET -0.003700 21.199493 -0.826900
								CHANNELS 3 Xrotation Yrotation Zrotation
								JOINT Head
								{
									OFFSET 0.000000 20.442200 4.834800
									CHANNELS 3 Xrotation Yrotation Zrotation
									JOINT HeadTop_End
									{
										OFFSET 0.000000 34.668396 4.968400
										CHANNELS 3 Xrotation Yrotation Zrotation
										End Site
										{
											OFFSET 0 0 0
										}
									}
								}
							}
						}
						JOINT LeftShoulder_virtual
						{
							OFFSET 0.000000 0.000000 0.000000
							CHANNELS 3 Xrotation Yrotation Zrotation
							JOINT LeftShoulder
							{
								OFFSET 3.288150 8.794197 -1.372250
								CHANNELS 3 Xrotation Yrotation Zrotation
								JOINT LeftShoulder_split
								{
									OFFSET 3.288150 8.794197 -1.372250
									CHANNELS 3 Xrotation Yrotation Zrotation
									JOINT LeftArm
									{
										OFFSET 11.953299 -2.279007 -0.146200
										CHANNELS 3 Xrotation Yrotation Zrotation
										JOINT LeftForeArm
										{
											OFFSET 18.448900 0.000000 0.000000
											CHANNELS 3 Xrotation Yrotation Zrotation
											JOINT LeftHand
											{
												OFFSET 29.527798 0.000000 0.000000
												CHANNELS 3 Xrotation Yrotation Zrotation
												End Site
												{
													OFFSET 0 0 0
												}
											}
										}
									}
								}
							}
						}
						JOINT RightShoulder_virtual
						{
							OFFSET 0.000000 0.000000 0.000000
							CHANNELS 3 Xrotation Yrotation Zrotation
							JOINT RightShoulder
							{
								OFFSET -3.249400 8.794197 -1.372250
								CHANNELS 3 Xrotation Yrotation Zrotation
								JOINT RightShoulder_split
								{
									OFFSET -3.249400 8.794197 -1.372250
									CHANNELS 3 Xrotation Yrotation Zrotation
									JOINT RightArm
									{
										OFFSET -11.953299 -2.279007 -0.146200
										CHANNELS 3 Xrotation Yrotation Zrotation
										JOINT RightForeArm
										{
											OFFSET -18.448900 0.000000 0.000000
											CHANNELS 3 Xrotation Yrotation Zrotation
											JOINT RightHand
											{
												OFFSET -29.527802 0.000000 0.000000
												CHANNELS 3 Xrotation Yrotation Zrotation
												End Site
												{
													OFFSET 0 0 0
												}
											}
										}
									}
								}
							}
						}
					}
				}
			}
		}
	}
}
MOTION
Frames: 4
Frame Time: 0.03333333
10.375485 76.789536 55.635113 0.000000 0.000000 0.000000 -18.794659 -49.377862 -11.013850 -47.997700 -6.387569 26.789937 60.872155 -3.568316 5.733616 -6.980685 -11.960214 -24.738248 -4.040469 0.115621 2.476900 0.000000 0.000000 0.000000 -19.548872 -42.755550 -9.370127 -38.678620 7.493717 -35.113132 83.871212 3.388766 -12.104086 2.380031 -3.604015 19.876194 -18.188114 -0.416704 9.891405 0.000000 0.000000 0.000000 -17.398216 -41.453740 -10.665884 25.934688 3.147624 -10.131863 -0.566737 1.240745 0.214568 1.275324 -1.177319 1.347009 0.000000 0.000000 0.000000 0.346160 0.924587 0.716922 0.705230 14.917304 0.761747 1.175843 23.095072 -5.648560 0.000000 0.000000 0.000000 0.236859 1.149172 0.814735 0.850161 1.786653 -8.058148 -0.028557 -3.694260 1.960848 -59.389478 4.480774 -44.305238 -175.780615 -66.431321 -173.844242 0.000000 0.000000 0.000000 0.258630 0.545346 0.334548 2.531966 11.142145 -4.653259 -6.329593 -1.264001 3.597394 -46.155403 21.653831 87.529072 -175.386130 64.035284 173.232818 0.000000 0.000000 0.000000 
9.055339 77.651970 52.121922 0.000000 0.000000 0.000000 -17.417385 -49.754656 -8.465103 -44.308588 -5.358670 26.768794 53.356509 -4.541204 5.689803 -3.620474 -12.022574 -26.716029 -4.007574 0.210306 1.777369 0.000000 0.000000 0.000000 -19.583035 -42.739840 -7.439854 -36.647336 5.840103 -35.857359 82.314332 4.504084 -11.582413 -4.943447 -6.092022 23.703729 -15.158101 0.468336 6.143996 0.000000 0.000000 0.000000 -18.578362 -42.584594 -9.718950 24.602358 4.349300 -9.330031 0.052254 1.355823 -0.469898 0.581957 -0.446743 1.506879 0.000000 0.000000 0.000000 0.693690 1.031098 0.017073 1.260534 14.601525 0.634781 3.271781 22.755117 -6.116824 0.000000 0.000000 0.000000 0.833842 1.275806 0.132026 0.759715 2.697326 -7.751389 -0.120967 -5.194523 2.147788 -58.051055 4.688342 -45.424320 -176.733959 -64.597648 -174.510555 0.000000 0.000000 0.000000 0.799665 0.640223 -0.361093 2.335837 11.853172 -4.582231 -5.973286 -0.357585 2.765083 -47.376910 19.574030 87.944471 -174.224657 66.581374 172.363375 0.000000 0.000000 0.000000 
7.744247 78.878723 48.369953 0.000000 0.000000 0.000000 -14.732687 -48.980185 -5.254272 -41.858763 -4.237425 26.484088 45.748873 -4.986426 5.299627 -0.768034 -12.226637 -27.396126 -4.203932 0.233276 1.150450 0.000000 0.000000 0.000000 -18.142243 -42.044363 -4.898314 -33.402579 3.270569 -35.834864 79.539896 4.487894 -10.141089 -13.879772 -9.756101 23.426027 -9.220369 1.088542 3.834651 0.000000 0.000000 0.000000 -18.292466 -43.125555 -7.886541 23.259239 5.407926 -8.628145 0.633649 1.387484 -1.156496 -0.137434 0.479127 1.638368 0.000000 0.000000 0.000000 0.961152 1.093750 -0.708882 1.760471 14.046354 0.596511 4.579796 21.758216 -6.039908 0.000000 0.000000 0.000000 1.358013 1.333488 -0.543936 0.718500 3.220185 -7.329555 -0.450392 -5.900786 1.761413 -57.427035 3.916307 -46.199977 -178.089519 -63.043056 -175.690197 0.000000 0.000000 0.000000 1.296948 0.704815 -1.057106 2.239904 12.767224 -5.034668 -4.887020 1.119652 2.057371 -48.497065 17.739482 87.735173 -173.482488 67.491654 171.759095 0.000000 0.000000 0.000000 
6.600292 80.210342 44.520313 0.000000 0.000000 0.000000 -11.945152 -47.844375 -2.569958 -40.974216 -3.112081 26.019326 40.566051 -5.023015 4.884674 0.783061 -12.450789 -26.879226 -4.833663 0.160306 0.763486 0.000000 0.000000 0.000000 -16.041167 -41.276459 -2.672603 -30.324595 0.150654 -34.861825 75.928187 3.472120 -7.920341 -21.528982 -12.989659 19.971075 -3.266287 1.429165 2.662507 0.000000 0.000000 0.000000 -16.944663 -43.528608 -5.814542 21.959601 6.217067 -8.000113 1.141284 1.322868 -1.638237 -0.226629 1.544418 1.558770 0.000000 0.000000 0.000000 1.117008 1.089364 -1.228918 2.147356 13.412513 0.392132 4.942996 20.456318 -5.670454 0.000000 0.000000 0.000000 1.737940 1.291488 -1.026784 0.725435 3.322985 -6.963757 -1.010223 -5.485828 0.969844 -57.521224 2.961567 -46.431305 -179.650108 -62.377058 -177.224066 0.000000 0.000000 0.000000 1.702659 0.740344 -1.521732 2.255167 13.618607 -6.068032 -3.515896 2.229736 1.809765 -49.899071 16.373804 86.700926 -173.683788 66.302600 171.989559 0.000000 0.000000 0.000000 
